<?xml version="1.0" encoding="UTF-8" standalone="no"?>
<!-- Created with Inkscape (http://www.inkscape.org/) -->

<svg
   xmlns:dc="http://purl.org/dc/elements/1.1/"
   xmlns:cc="http://creativecommons.org/ns#"
   xmlns:rdf="http://www.w3.org/1999/02/22-rdf-syntax-ns#"
   xmlns:svg="http://www.w3.org/2000/svg"
   xmlns="http://www.w3.org/2000/svg"
   xmlns:sodipodi="http://sodipodi.sourceforge.net/DTD/sodipodi-0.dtd"
   xmlns:inkscape="http://www.inkscape.org/namespaces/inkscape"
   width="250"
   height="50"
   viewBox="0 0 66.145832 13.229167"
   version="1.1"
   id="svg1085"
   inkscape:version="0.92.4 (5da689c313, 2019-01-14)"
   sodipodi:docname="Logo.svg">
  <defs
     id="defs1079" />
  <sodipodi:namedview
     id="base"
     pagecolor="#ffffff"
     bordercolor="#666666"
     borderopacity="1.0"
     inkscape:pageopacity="0.0"
     inkscape:pageshadow="2"
     inkscape:zoom="2.24"
     inkscape:cx="53.076527"
     inkscape:cy="40.986475"
     inkscape:document-units="mm"
     inkscape:current-layer="layer1"
     showgrid="false"
     units="px"
     inkscape:window-width="1600"
     inkscape:window-height="837"
     inkscape:window-x="-8"
     inkscape:window-y="-8"
     inkscape:window-maximized="1" />
  <metadata
     id="metadata1082">
    <rdf:RDF>
      <cc:Work
         rdf:about="">
        <dc:format>image/svg+xml</dc:format>
        <dc:type
           rdf:resource="http://purl.org/dc/dcmitype/StillImage" />
        <dc:title />
      </cc:Work>
    </rdf:RDF>
  </metadata>
  <g
     inkscape:label="Layer 1"
     inkscape:groupmode="layer"
     id="layer1"
     transform="translate(0,-283.77082)">
    <g
       transform="matrix(0.00472617,0,0,-0.00472617,1.0108498,295.2529)"
       id="g865-1-5-4-9-0"
       style="stroke-width:8.25;stroke-miterlimit:4;stroke-dasharray:none"
       inkscape:export-xdpi="300"
       inkscape:export-ydpi="300">
      <path
         style="fill:#000000;fill-opacity:1;stroke:none;stroke-width:0.75px;stroke-linecap:butt;stroke-linejoin:miter;stroke-opacity:1"
         d="m 535.66401,935.96051 0.70005,197.69999 c 4.40299,52.5009 34.00958,79.4039 58.69995,111.3 l 181.10003,107.7 -0.69997,-197.8 -6.3,-38.4 c -17.62877,-30.9324 -34.93056,-62.2545 -62.7,-81.1 z"
         id="path1157-1-4-3-7-7"
         inkscape:connector-curvature="0"
         sodipodi:nodetypes="cccccccc" />
      <path
         style="fill:#cc0000;fill-opacity:1;stroke:none;stroke-width:0.75px;stroke-linecap:butt;stroke-linejoin:miter;stroke-opacity:1"
         d="m 836.26404,1057.1605 c 37.07173,34.6653 102.58888,61.5727 154.10001,92.3 12.05375,-1.065 22.64495,-3.395 23.90005,-13.8 l 1.8,-161.80001 c -3.7961,-15.4285 -6.9541,-30.6781 -25.70006,-50.29995 l -147.7,-85.2 c -10.60814,-4.27173 -17.28812,4.81838 -24,13.8 l -2.39997,153.29996 c 0.36433,20.1604 8.91478,36.5188 19.99997,51.7"
         id="path1121-9-5-5-5-5"
         inkscape:connector-curvature="0"
         sodipodi:nodetypes="ccccccccc" />
      <path
         style="fill:#ff6600;fill-opacity:1;stroke:none;stroke-width:0.75px;stroke-linecap:butt;stroke-linejoin:miter;stroke-opacity:1"
         d="m 825.66405,842.26053 -84.20003,50.60003 -5.4,19.99995 0.6,147.29999 c 7.33065,19.336 16.97813,36.3552 27.80002,52.2 l 138.90001,81.6 21.39997,-0.5 71.90003,-43.8 -13.10002,-2 -140.89996,-83.5 c -10.77521,-15.2608 -21.38484,-30.6361 -25.8,-50.3 V 858.86051 Z"
         id="path1123-0-4-9-5-8"
         inkscape:connector-curvature="0"
         sodipodi:nodetypes="ccccccccccccc" />
      <path
         style="fill:#000000;stroke:none;stroke-width:0.75px;stroke-linecap:butt;stroke-linejoin:miter;stroke-opacity:1"
         d="m 535.66401,10.260532 c -18.02686,-8.2898308 -36.0066,-16.9244978 -56.7,-5.6999998 -13.92757,4.565115 -17.47298,23.6810278 -22.8,40.2999758 V 1179.9605 c 8.73471,64.8309 41.34355,87.8821 69,119.6 l 983.10009,567.5 c 30.3485,2.4379 63.454,12.485 69.7,-51.6 l -2.8,-1136.49995 c -9.8501,-35.24987 -35.8534,-73.94655 -56.7,-98.20001 L 736.06402,125.96056 v 231.39998 c 2.23006,47.12897 22.64796,88.18946 59.4,123.79996 L 1227.564,734.46055 c 27.974,33.69083 62.4091,59.30527 69.1001,119.59996 l 0.6999,706.89999 c -5.9849,24.9291 -3.9498,73.1374 -69.8,51.5 l -632.49999,-367.5 c -32.1461,-24.7231 -48.05915,-65.4178 -58.69995,-111.3 z"
         id="path1125-4-2-9-1-0"
         inkscape:connector-curvature="0"
         sodipodi:nodetypes="ccccccccccccccccccc" />
      <path
         style="fill:#ffcc00;fill-opacity:1;stroke:none;stroke-width:0.75px;stroke-linecap:butt;stroke-linejoin:miter;stroke-opacity:1"
         d="m 465.1034,13.543741 -79.03934,49.116817 -8.00003,17.7 -2.79997,1133.399942 c 2.33691,64.0388 44.11518,104.137 67.00089,129.8447 l 975.29915,564.4553 c 20.2437,5.4499 42.4243,16.0649 56.7,5.6 l 63.6,-41.1 -40.1,-10.8 -972.60009,-562.2 c -33.1253,-28.6637 -61.09281,-63.0341 -69,-119.6 L 455.46403,56.560508 Z"
         id="path1127-2-5-2-9-6"
         inkscape:connector-curvature="0"
         sodipodi:nodetypes="ccccccccccccc" />
      <path
         style="fill:#ffcc00;fill-opacity:1;stroke:none;stroke-width:0.75px;stroke-linecap:butt;stroke-linejoin:miter;stroke-opacity:1"
         d="m 736.06402,125.96056 -80.19998,46.2 0.69998,243.99998 c 10.28237,66.00046 40.31535,91.46938 69.10005,119.49998 0,0 422.19993,243.69998 432.09993,253.40003 18.7776,3.99296 67.4787,91.20652 56.6,98.19998 l 2.8001,719.89997 c 0.3295,2.2059 50.579,19.2865 56.7,5.7 2.1112,-4.6862 32.5126,-35.743 23.4999,-51.9 l -2.7999,-719.99994 c -7.9194,-42.3638 -29.3874,-78.27587 -67.0001,-106.50001 L 795.46402,481.1605 C 767.24699,447.68657 738.85789,414.28477 736.76407,369.86057 Z"
         id="path1129-1-2-7-9-0"
         inkscape:connector-curvature="0"
         sodipodi:nodetypes="cccccccscccccc" />
      <path
         style="fill:#000000;fill-opacity:1;stroke:none;stroke-width:0.75px;stroke-linecap:butt;stroke-linejoin:miter;stroke-opacity:1"
         d="m 295.16406,334.26054 c -12.543,-10.05772 -29.86787,-11.17487 -48.9,-9.09997 -16.64117,5.86684 -27.50159,19.54151 -30.60002,43.69995 l 2,962.99998 c 8.34948,42.4931 37.35687,84.6578 62.54997,102.85 l 827.14999,478.65 c 62.3308,12.9914 55.2053,-13.4791 67,-29.2 l 2.7,-114.9 -240.49996,-138.9 c 5.3523,25.9933 -20.56556,67.3799 -59.50002,55.1 l -522.49998,-301.7 c -21.21831,-30.5656 -52.24123,-70.8614 -58.79998,-111.2 z"
         id="path1131-2-4-8-8-7"
         inkscape:connector-curvature="0"
         sodipodi:nodetypes="ccccccccccccc" />
      <path
         style="fill:#000000;fill-opacity:1;stroke:none;stroke-width:0.75px;stroke-linecap:butt;stroke-linejoin:miter;stroke-opacity:1"
         d="m 535.66401,473.0605 v 277.8 l 223.90006,129.30001 62.1,-33.6 21,-8.19998 147.69998,85.2 23.90005,41.49996 1.8,163.80001 -19.40005,20.8 -60.09998,37 v 258.6 l 240.49993,138.8 -0.6999,-660.59994 c -14.2787,-60.5239 -39.1434,-105.11813 -79.5001,-126.40005 z"
         id="path1133-3-7-2-1-0"
         inkscape:connector-curvature="0"
         sodipodi:nodetypes="ccccccccccccccc" />
      <path
         style="fill:#99cc33;fill-opacity:1;stroke:none;stroke-width:0.75px;stroke-linecap:butt;stroke-linejoin:miter;stroke-opacity:1"
         d="m 231.46404,333.76052 -80.1,46.2 -15.9,35.20005 2,962.99993 c 10.34942,46.7345 32.71108,73.7995 56.7,98.2 l 843.29996,486.8 35.9001,-3.2 63.6,-41.1 -40.1001,-10.8 -822.49999,-478 c -34.5814,-34.1739 -57.60387,-73.8682 -59.39997,-123.7 l 0.7,-937.49998 z"
         id="path1135-2-5-2-6-2"
         inkscape:connector-curvature="0"
         sodipodi:nodetypes="ccccccccccccc" />
      <path
         style="fill:#99cc33;fill-opacity:1;stroke:none;stroke-width:0.75px;stroke-linecap:butt;stroke-linejoin:miter;stroke-opacity:1"
         d="m 856.36402,1584.0605 v 92.6 l 30.70005,10.6 c 22.73456,2.2422 34.92939,-8.9971 43.39995,-25 l 6.10005,-31.9 z"
         id="path1137-6-7-9-7-9"
         inkscape:connector-curvature="0"
         sodipodi:nodetypes="cccccc" />
      <path
         style="fill:#99cc33;fill-opacity:1;stroke:none;stroke-width:0.75px;stroke-linecap:butt;stroke-linejoin:miter;stroke-opacity:1"
         d="m 856.36402,1167.4605 v 231.5 l 80.20005,46.3 v -258.6 l -20.1,9.3 z"
         id="path1139-6-4-0-9-0"
         inkscape:connector-curvature="0" />
      <path
         style="fill:#99cc33;fill-opacity:1;stroke:none;stroke-width:0.75px;stroke-linecap:butt;stroke-linejoin:miter;stroke-opacity:1"
         d="m 535.66401,750.8605 223.90006,129.30001 -18.10005,12.70005 -5.4,19.99995 v 46.19998 L 535.66401,843.36056 Z"
         id="path1141-4-9-8-0-9"
         inkscape:connector-curvature="0" />
      <path
         style="fill:#6699ff;fill-opacity:1;stroke:none;stroke-width:0.75px;stroke-linecap:butt;stroke-linejoin:miter;stroke-opacity:1"
         d="m -9.0359612,657.76053 -80.1999998,46.29997 -13.799999,24.40005 -2,775.49995 c 1.31143,41.3571 28.465589,76.6877 58.699999,111.3 l 672.599981,390.6 c 19.97015,10.4235 32.01899,3.0113 46.2,0.4 l 63.6,-41.2 -40.09995,-10.7 -641.400031,-370.3 c -38.91424,-31.0799 -75.07652,-65.589 -80.1,-138.9 l 0.6,-752.29997 z"
         id="path1143-2-0-4-0-5"
         inkscape:connector-curvature="0"
         sodipodi:nodetypes="ccccccccccccc" />
      <path
         style="fill:#6699ff;fill-opacity:1;stroke:none;stroke-width:0.75px;stroke-linecap:butt;stroke-linejoin:miter;stroke-opacity:1"
         d="m 495.56406,1653.4605 c 4.31873,14.9322 0,92.6 0,92.6 l 53.79998,28.3 c 10.4329,-0.7865 21.36851,0.095 25.8,-20.6 l 0.6,-54 z"
         id="path1145-7-8-0-8-4"
         inkscape:connector-curvature="0"
         sodipodi:nodetypes="cccccc" />
      <path
         style="fill:#6699ff;fill-opacity:1;stroke:none;stroke-width:0.75px;stroke-linecap:butt;stroke-linejoin:miter;stroke-opacity:1"
         d="m 495.56406,1375.8605 v 92.5 l 80.19998,46.3 v -92.6 z"
         id="path1147-7-2-9-8-7"
         inkscape:connector-curvature="0" />
      <path
         style="fill:#6699ff;fill-opacity:1;stroke:none;stroke-width:0.75px;stroke-linecap:butt;stroke-linejoin:miter;stroke-opacity:1"
         d="m 295.16406,1121.0605 80.1,46.3 v -92.5 l -80.1,-46.3 z"
         id="path1149-9-1-2-6-0"
         inkscape:connector-curvature="0" />
      <path
         style="fill:#6699ff;fill-opacity:1;stroke:none;stroke-width:0.75px;stroke-linecap:butt;stroke-linejoin:miter;stroke-opacity:1"
         d="m 94.664039,773.9605 0.6,193.49999 c 5.474081,30.6955 21.005821,47.88661 39.500001,61.10001 V 750.76053 Z"
         id="path1151-5-7-8-4-6"
         inkscape:connector-curvature="0"
         sodipodi:nodetypes="ccccc" />
      <path
         style="fill:#000000;fill-opacity:1;stroke:none;stroke-width:0.75px;stroke-linecap:butt;stroke-linejoin:miter;stroke-opacity:1"
         d="m 54.564039,658.26055 c -11.97313,-13.38945 -34.67089,-8.93859 -56.7000002,-5.60002 -14.9915598,5.78575 -17.2630498,24.6748 -22.7999998,40.2 v 764.79997 c 4.83258,52.6013 37.16522,92.2929 64.17957,115.3886 l 672.095461,387.6864 c 29.32812,4.8476 46.98907,16.9156 62.12497,-30.275 l 2.7,-115 -200.4,-115.7 -0.6,54 c -7.56467,20.6335 -18.7477,25.4872 -32.60003,18.7 l -454.799971,-262.6 c -17.875,-16.4829 -31.91152,-35.832 -33.2,-64.7 z"
         id="path1153-9-8-4-6-0"
         inkscape:connector-curvature="0"
         sodipodi:nodetypes="cccccccccccccc" />
      <path
         style="fill:#000000;fill-opacity:1;stroke:none;stroke-width:0.75px;stroke-linecap:butt;stroke-linejoin:miter;stroke-opacity:1"
         d="m 575.76404,1422.0605 v 92.6 l 200.4,115.7 v -92.5 z"
         id="path1155-5-8-3-6-5"
         inkscape:connector-curvature="0" />
      <path
         style="fill:#000000;fill-opacity:1;stroke:none;stroke-width:0.75px;stroke-linecap:butt;stroke-linejoin:miter;stroke-opacity:1"
         d="m 295.16406,797.06051 v 231.49999 l 80.1,46.3 V 843.36056 Z"
         id="path1159-4-8-2-1-2"
         inkscape:connector-curvature="0" />
      <path
         d="m 398.76404,50.860538 80.2,-46.3000038 M 1554.4641,1867.4605 l -80.2,46.2 M 158.26404,374.86054 l 80.2,-46.3 m 915.09996,1585.09996 -80.2,46.3 M -82.235961,698.86054 l 80.0999998,-46.2 M 752.66404,1959.9605 l -80.2,46.3 m 75.4,-1119.29996 80.1,-46.3 m 176.99996,306.49996 -80.19996,46.3 m -469.3,-1136.899962 0.7,-11.7 2,-10.700004 3.4,-9.6 4.6,-8.1 5.9,-6.6999998 6.9,-5.2 7.9,-3.4 8.7,-1.70000001 9.4,0.1 9.9,1.80000001 10.3,3.6 10.5,5.2999998 m -80.2,1157.299966 V 56.560538 m 80.2,1249.799962 -10.5,-6.8 -10.3,-8.3 -9.9,-9.6 -9.4,-10.8 -8.7,-11.8 -7.9,-12.5 -6.9,-13.1 -5.9,-13.4 -4.6,-13.6 -3.4,-13.4 -2,-13.1 -0.7,-12.4 m 1042.30006,694.2 -962.10006,-555.4 m 1042.30006,509.1 -0.7,11.7 -2.1,10.7 -3.3,9.6 -4.7,8.1 -5.8,6.7 -6.9,5.2 -7.9,3.4 -8.7,1.7 -9.4,-0.1 -10,-1.8 -10.2,-3.6 -10.5,-5.3 m 80.2,-1157.29996 V 1815.4605 m -80.2,-1249.79996 10.5,6.8 10.2,8.3 10,9.6 9.4,10.8 8.7,11.8 7.9,12.5 6.9,13.1 5.8,13.4 4.7,13.6 3.3,13.4 2.1,13.1 0.7,12.4 m -841.90006,-578.5 761.70006,439.7 m -761.70006,-439.7 v 231.4 m 0,0 0.7,12.5 2.1,13.1 3.3,13.4 4.7,13.5 5.8,13.4 6.9,13.1 7.9,12.6 8.7,11.7 9.4,10.8 9.9,9.7 10.3,8.3 10.5,6.8 m 0,0 400.89996,231.4 m 0,0 10.4,6.8 10.3,8.3 10,9.7 9.4,10.8 8.7,11.7 7.9,12.6 6.9,13.1 5.8,13.4 4.7,13.5 3.3,13.4 2.1,13.1 0.7,12.5 m 0,0 v 694.39996 m 0,0 -0.7,11.7 -2.1,10.6 -3.3,9.6 -4.7,8.2 -5.8,6.7 -6.9,5.1 -7.9,3.4 -8.7,1.7 -9.4,-0.1 -10,-1.8 -10.3,-3.6 -10.4,-5.2 m 0,0 -601.29996,-347.2 m 0,0 -10.5,-6.8 -10.3,-8.3 -9.9,-9.6 -9.4,-10.8 -8.7,-11.8 -7.9,-12.5 -6.9,-13.1 -5.9,-13.4 -4.6,-13.6 -3.4,-13.4 -2,-13.1 -0.7,-12.4 m 0,0 V 10.260534 m -80.2,1342.399966 -10.5,-6.8 -10.2,-8.3 -10,-9.6 -9.4,-10.8 -8.7,-11.8 -7.9,-12.5 -6.9,-13.1 -5.8,-13.5 -4.7,-13.5 -3.3,-13.4 -2.1,-13.1 -0.7,-12.5 m 0,0 V 102.76054 M 1417.564,1908.0605 455.46404,1352.6605 M 1217.164,912.86054 V 1607.1605 M 375.26404,102.76054 l 0.7,-11.700002 2.1,-10.7 3.3,-9.5 4.7,-8.2 5.8,-6.7 6.9,-5.1 M 1474.2641,1913.6605 l -7.9,3.5 -8.7,1.7 -9.4,-0.1 -9.9,-1.8 -10.3,-3.6 -10.5001,-5.3 M 655.86404,403.66054 l 0.7,12.5 2.1,13 3.3,13.5 4.7,13.5 5.8,13.4 6.9,13.1 7.9,12.6 8.7,11.7 9.4,10.8 10,9.6 10.3,8.3 10.4,6.9 m -80.2,-370.4 80.2,-46.2 m -80.2,46.2 v 231.5 m 80.2,138.9 400.89996,231.4 m 0,0 10.5,6.8 10.3,8.3 9.9,9.7 9.4,10.7 8.7,11.8 7.9,12.5 6.9,13.1 5.8,13.5 4.7,13.5 3.3,13.4 2.1,13.1 0.7,12.5 m -921.99996,532.39996 -10.5,-6.9 -10.3,-8.3 -9.9,-9.6 -9.4,-10.8 -8.8,-11.7 -7.8,-12.6 -7,-13.1 -5.8,-13.4 -4.6,-13.5 -3.4,-13.5 -2,-13 -0.7,-12.5 m 0,185.2 -10.5,-6.9 -10.3,-8.3 -9.9,-9.6 -9.4,-10.8 -8.7,-11.8 -7.9,-12.5 -6.9,-13.1 -5.9,-13.4 -4.6,-13.6 -3.4,-13.4 -2,-13 -0.7,-12.5 m 400.9,-601.79996 223.9,129.3 m 177,306.49996 v 258.6 m 0,185.1 -0.7,11.7 -2.1,10.7 -3.3,9.5 -4.7,8.2 -5.8,6.7 -6.9,5.1 -7.9,3.4 -8.7,1.7 -9.4,-0.1 -10,-1.8 -10.2,-3.6 -10.5,-5.2 m 0,0 -481.1,-277.7 m 0,0 -10.4,-6.9 -10.3,-8.3 -10,-9.6 -9.4,-10.8 -8.7,-11.7 -7.9,-12.6 -6.9,-13.1 -5.8,-13.4 -4.6,-13.5 -3.4,-13.5 -2.1,-13 -0.6,-12.5 m 0,0 V 334.26054 m -80.2,46.3 0.7,-11.7 2,-10.7 3.4,-9.6 4.6,-8.1 5.8,-6.7 7,-5.2 7.8,-3.4 8.8,-1.7 9.4,0.1 9.9,1.8 10.3,3.6 10.5,5.3 m -80.2,972.09996 V 380.56054 m 881.89996,1527.49996 -801.69996,-462.8 m 801.69996,462.8 10.5,5.3 10.3,3.5 9.9,1.9 9.4,0.1 8.7,-1.7 7.9,-3.5 6.9,-5.1 5.8,-6.7 4.7,-8.2 3.4,-9.5 2,-10.7 0.7,-11.7 m 0,0 v -92.5 m 0,-185.2 V 935.96054 m 0,0 -0.7,-12.5 -2,-13.1 -3.4,-13.4 -4.7,-13.5 -5.8,-13.5 -6.9,-13.1 -7.9,-12.5 -8.7,-11.8 -9.4,-10.7 -9.9,-9.7 -10.3,-8.3 -10.5,-6.8 m -561.19996,-324 561.19996,324 M 134.76404,1352.6605 V 426.76054 m 881.89996,1527.59996 -801.69996,-462.8 m -80.2,-1064.79996 0.7,-11.6 2,-10.7 3.4,-9.6 4.6,-8.1 5.9,-6.8 6.9,-5.1 m 698.1,1301.79996 v -92.6 m 0,-185.1 v -231.5 m 216.99996,792.5 -7.9,3.4 -8.7,1.7 h -9.4 l -9.9,-1.9 -10.3,-3.6 -10.5,-5.2 m -280.59996,-995.30001 -200.4,-115.69995 m -481.100001,740.69996 -10.4,-6.8 -10.3,-8.3 -10,-9.7 -9.4,-10.7 -8.7000002,-11.8 -7.9,-12.5 -6.9,-13.1 -5.7999998,-13.5 -4.6,-13.5 -3.4,-13.4 -2.1,-13.1 -0.6,-12.5 m 0,185.2 -10.5,-6.8 -10.3,-8.3 -9.9,-9.7 -9.4,-10.8 -8.8,-11.7 -7.8,-12.6 -7,-13.1 -5.8,-13.4 -4.6,-13.5 -3.399999,-13.4 -2,-13.1 -0.7,-12.5 m 80.199999,-46.3 V 704.56054 M 695.96404,1954.3605 54.564039,1584.0605 m 641.400001,370.3 10.5,5.2 10.3,3.6 9.9,1.8 9.4,0.1 8.7,-1.7 7.9,-3.4 6.9,-5.1 5.9,-6.7 4.6,-8.2 3.4,-9.5 2,-10.7 0.7,-11.7 m 0,0 v -92.6 m 0,-185.1 v -92.5 m 0,-185.2 v -185.3 m 0,0 -0.7,-12.5 -2,-13 -3.4,-13.4 -4.6,-13.6 -1,-2.5 m -26.6,-46.1 -1.8,-2.2 -9.4,-10.8 -9.9,-9.6 -10.3,-8.3 -10.5,-6.9 m -400.8,-231.39996 80.1,46.3 m 160.4,92.6 160.3,92.49996 m -400.8,0.1 80.1,46.3 m 200.5,347.2 v 92.6 m 0,185.1 v 46.3 m 0,0 -0.6,7.7 -1.8,6.7 -3,5.6 -4,4.3 -4.9,2.9 -5.8,1.3 -6.3,-0.2 -6.8,-1.9 -6.9,-3.3 m 0,0 -441.000001,-254.5 m 0,0 -6.9,-4.8 -6.8,-5.9 -6.3,-7.1 -5.8,-7.9 -4.9,-8.6 -4,-8.9 -3,-9 -1.8,-8.9 -0.6,-8.4 m 0,0 V 658.26054 m -80.1,46.3 0.6,-11.7 2.1,-10.7 3.4,-9.5 4.6,-8.2 5.7999998,-6.7 6.9,-5.1 7.9,-3.5 8.7000002,-1.7 9.4,0.1 10,1.8 10.3,3.6 10.4,5.3 M -105.73596,1491.4605 V 750.76054 m 721.6,1249.89996 -641.400001,-370.3 m -80.199999,-879.59996 0.7,-11.6 2,-10.7 3.399999,-9.6 4.6,-8.1 5.8,-6.7 7,-5.2 M 495.56404,1746.0605 v -92.6 m 0,-185.1 v -92.5 m 176.9,630.4 -7.8,3.4 -8.8,1.7 -9.4,-0.1 -9.9,-1.8 -10.3,-3.6 -10.4,-5.2 m -481.1,-972.1 -7,-4.7 -6.7,-6 -6.3,-7.1 -5.8,-7.9 -4.9,-8.60001 -4,-8.9 -3.000001,-9 -1.8,-8.9 -0.6,-8.4 m 0,-185.09995 40.100001,-23.2 M 94.664039,959.06049 V 773.96054 m 280.600001,393.39996 -80.1,-46.3 m 561.2,-46.2 -7,-4.7 -6.7,-6 -6.4,-7 -5.7,-8 -4.9,-8.5 -4,-8.9 -3,-9.1 -1.8,-8.8 -0.6,-8.4 m -40.1,115.7 -7,-4.7 -6.7,-6 -6.3,-7.1 -5.8,-7.9 -4.9,-8.5 -4,-9 -3,-9 -1.8,-8.8 -0.6,-8.4 m 240.5,92.6 -120.2,-69.5 m 160.29996,46.3 -0.6,7.7 -1.8,6.8 -2.9,5.6 -4,4.3 -5,2.8 -5.69996,1.3 -6.3,-0.2 -6.8,-1.8 -7,-3.3 M 1016.664,982.26049 v 138.90001 m -40.09996,-208.29996 7,4.7 6.8,6 6.3,7.1 5.69996,7.89995 5,8.6 4,8.9 2.9,9 1.8,8.8 0.6,8.4 m -160.29996,-138.79995 120.2,69.4 m -160.3,-46.3 0.6,-7.7 1.8,-6.7 3,-5.6 4,-4.3 4.9,-2.9 5.7,-1.3 6.4,0.3 6.7,1.8 7,3.3 m -40.1,161.99996 V 866.56054 m -80.2,185.19996 V 912.86054 m 160.4,277.69996 -120.3,-69.4 m -40.1,-208.29996 0.6,-7.7 1.8,-6.7 3,-5.6 4,-4.3 2.4,-1.6 m 176.9,306.49996 -2.6,1.2 -5.7,1.3 -6.3,-0.2 -6.8,-1.8 -6.9,-3.4"
         style="opacity:1;fill:none;fill-opacity:1;stroke:#ffffff;stroke-width:12.13269329;stroke-linecap:round;stroke-linejoin:round;stroke-miterlimit:4;stroke-dasharray:none;stroke-opacity:1"
         id="path1113-7-5-0-5-2"
         inkscape:connector-curvature="0"
         sodipodi:nodetypes="cccccccccccccccccccccccccccccccccccccccccccccccccccccccccccccccccccccccccccccccccccccccccccccccccccccccccccccccccccccccccccccccccccccccccccccccccccccccccccccccccccccccccccccccccccccccccccccccccccccccccccccccccccccccccccccccccccccccccccccccccccccccccccccccccccccccccccccccccccccccccccccccccccccccccccccccccccccccccccccccccccccccccccccccccccccccccccccccccccccccccccccccccccccccccccccccccccccccccccccccccccccccccccccccccccccccccccccccccccccccccccccccccccccccccccccccccccccccccccccccccccccccccccccccccccccccccccccccccccccccccccccccccccccccccccccccccccccccccccc" />
    </g>
    <g
       aria-label="proyect  "
       transform="matrix(0.03468792,0,0,0.03468792,-106.26023,196.49616)"
       style="font-style:normal;font-weight:normal;font-size:17.33333397px;line-height:1.25;font-family:sans-serif;text-align:center;letter-spacing:0px;word-spacing:0px;text-anchor:middle;fill:#000000;fill-opacity:1;stroke:none;stroke-width:8.25;stroke-miterlimit:4;stroke-dasharray:none"
       id="flowRoot4864-8-9-6-3-4">
      <path
         d="m 3446.039,2629.9688 h 34.1146 v 20.3125 q 6.6406,-10.4167 17.9687,-16.9271 11.3282,-6.5104 25.1303,-6.5104 24.0885,0 40.8854,18.8802 16.7968,18.8802 16.7968,52.6041 0,34.6354 -16.927,53.9063 -16.9271,19.1406 -41.0157,19.1406 -11.4583,0 -20.8333,-4.5573 -9.2448,-4.5573 -19.5312,-15.625 v 69.6615 h -36.5886 z m 36.1979,66.7968 q 0,23.3073 9.2448,34.5052 9.2448,11.0677 22.5261,11.0677 12.7604,0 21.2239,-10.1562 8.4636,-10.2865 8.4636,-33.5938 0,-21.7447 -8.724,-32.2916 -8.724,-10.5469 -21.6146,-10.5469 -13.4114,0 -22.2656,10.4167 -8.8542,10.2864 -8.8542,30.5989 z"
         style="font-style:normal;font-variant:normal;font-weight:bold;font-stretch:normal;font-size:266.66665649px;font-family:Arial;-inkscape-font-specification:'Arial Bold';text-align:center;letter-spacing:-9.25928211px;text-anchor:middle"
         id="path2959" />
      <path
         d="m 3635.8683,2768.25 h -36.5886 v -138.2812 h 33.9844 v 19.6614 q 8.724,-13.9323 15.625,-18.3594 7.0313,-4.427 15.8854,-4.427 12.5,0 24.0886,6.901 l -11.3282,31.901 q -9.2448,-5.9895 -17.1875,-5.9895 -7.6823,0 -13.0208,4.2968 -5.3385,4.1667 -8.4635,15.2344 -2.9948,11.0677 -2.9948,46.3542 z"
         style="font-style:normal;font-variant:normal;font-weight:bold;font-stretch:normal;font-size:266.66665649px;font-family:Arial;-inkscape-font-specification:'Arial Bold';text-align:center;letter-spacing:-9.25928211px;text-anchor:middle"
         id="path2961" />
      <path
         d="m 3686.7652,2697.1563 q 0,-18.2292 8.9844,-35.2865 8.9844,-17.0573 25.3906,-26.0417 16.5365,-8.9843 36.849,-8.9843 31.3802,0 51.4323,20.4427 20.0521,20.3125 20.0521,51.4323 0,31.3802 -20.3125,52.0833 -20.1823,20.5729 -50.9115,20.5729 -19.0104,0 -36.3281,-8.5938 -17.1875,-8.5937 -26.1719,-25.1302 -8.9844,-16.6666 -8.9844,-40.4947 z m 37.5,1.9531 q 0,20.5729 9.7657,31.5104 9.7656,10.9375 24.0885,10.9375 14.3229,0 23.9583,-10.9375 9.7656,-10.9375 9.7656,-31.7708 0,-20.3125 -9.7656,-31.25 -9.6354,-10.9375 -23.9583,-10.9375 -14.3229,0 -24.0885,10.9375 -9.7657,10.9375 -9.7657,31.5104 z"
         style="font-style:normal;font-variant:normal;font-weight:bold;font-stretch:normal;font-size:266.66665649px;font-family:Arial;-inkscape-font-specification:'Arial Bold';text-align:center;letter-spacing:-9.25928211px;text-anchor:middle"
         id="path2963" />
      <path
         d="m 3831.6726,2629.9688 h 38.9323 l 33.0729,98.177 32.2917,-98.177 h 37.8906 l -48.8281,133.0729 -8.724,24.0885 q -4.8177,12.1094 -9.2448,18.4896 -4.2968,6.3802 -10.026,10.2864 -5.599,4.0365 -13.9323,6.25 -8.2031,2.2136 -18.6198,2.2136 -10.5469,0 -20.7031,-2.2136 l -3.2552,-28.6458 q 8.5937,1.6927 15.4948,1.6927 12.7604,0 18.8802,-7.5521 6.1198,-7.4218 9.375,-19.0104 z"
         style="font-style:normal;font-variant:normal;font-weight:bold;font-stretch:normal;font-size:266.66665649px;font-family:Arial;-inkscape-font-specification:'Arial Bold';text-align:center;letter-spacing:-9.25928211px;text-anchor:middle"
         id="path2965" />
      <path
         d="m 4068.2466,2724.2396 36.4584,6.1198 q -7.0313,20.0521 -22.2657,30.5989 -15.1041,10.4167 -37.8906,10.4167 -36.0677,0 -53.3854,-23.5677 -13.6719,-18.8802 -13.6719,-47.6563 0,-34.375 17.9688,-53.776 17.9687,-19.5312 45.4427,-19.5312 30.8594,0 48.6979,20.4427 17.8385,20.3125 17.0573,62.3698 h -91.6667 q 0.3907,16.276 8.8542,25.3906 8.4635,8.9843 21.0937,8.9843 8.5938,0 14.4532,-4.6875 5.8593,-4.6875 8.8541,-15.1041 z m 2.0834,-36.9792 q -0.3907,-15.8854 -8.2032,-24.0885 -7.8125,-8.3334 -19.0104,-8.3334 -11.9791,0 -19.7916,8.724 -7.8125,8.724 -7.6823,23.6979 z"
         style="font-style:normal;font-variant:normal;font-weight:bold;font-stretch:normal;font-size:266.66665649px;font-family:Arial;-inkscape-font-specification:'Arial Bold';text-align:center;letter-spacing:-9.25928211px;text-anchor:middle"
         id="path2967" />
      <path
         d="m 4247.9196,2670.8542 -36.0677,6.5104 q -1.8229,-10.8073 -8.3333,-16.2761 -6.3802,-5.4687 -16.6667,-5.4687 -13.6718,0 -21.875,9.5052 -8.0729,9.375 -8.0729,31.5104 0,24.6094 8.2032,34.7656 8.3333,10.1563 22.2656,10.1563 10.4166,0 17.0573,-5.8594 6.6406,-5.9896 9.375,-20.4427 l 35.9375,6.1198 q -5.599,24.7396 -21.4844,37.3698 -15.8854,12.6302 -42.5781,12.6302 -30.3386,0 -48.4375,-19.1406 -17.9688,-19.1407 -17.9688,-52.9948 0,-34.2448 18.099,-53.2552 18.0989,-19.1406 48.9583,-19.1406 25.2604,0 40.1042,10.9375 14.9739,10.8072 21.4843,33.0729 z"
         style="font-style:normal;font-variant:normal;font-weight:bold;font-stretch:normal;font-size:266.66665649px;font-family:Arial;-inkscape-font-specification:'Arial Bold';text-align:center;letter-spacing:-9.25928211px;text-anchor:middle"
         id="path2969" />
      <path
         d="m 4329.9364,2629.9688 v 29.1666 h -25 v 55.7292 q 0,16.9271 0.6511,19.7916 0.7812,2.7344 3.2552,4.5573 2.6041,1.823 6.25,1.823 5.0781,0 14.7135,-3.5157 l 3.125,28.3854 q -12.7604,5.4688 -28.9062,5.4688 -9.8959,0 -17.8386,-3.2552 -7.9427,-3.3854 -11.7187,-8.5938 -3.6459,-5.3385 -5.0782,-14.3229 -1.1718,-6.3802 -1.1718,-25.7812 v -60.2865 h -16.7969 v -29.1666 h 16.7969 v -27.474 l 36.7187,-21.3542 v 48.8282 z"
         style="font-style:normal;font-variant:normal;font-weight:bold;font-stretch:normal;font-size:266.66665649px;font-family:Arial;-inkscape-font-specification:'Arial Bold';text-align:center;letter-spacing:-9.25928211px;text-anchor:middle"
         id="path2971" />
    </g>
    <g
       aria-label="pl  n"
       transform="matrix(0.03468792,0,0,0.03468792,-78.478489,196.49616)"
       style="font-style:normal;font-weight:normal;font-size:17.33333397px;line-height:1.25;font-family:sans-serif;text-align:center;letter-spacing:0px;word-spacing:0px;text-anchor:middle;fill:#0e232e;fill-opacity:1;stroke:none;stroke-width:8.25;stroke-miterlimit:4;stroke-dasharray:none"
       id="flowRoot4864-0-2-2-0-7-0">
      <path
         d="m 3677.2022,2629.9688 h 34.1145 v 20.3125 q 6.6407,-10.4167 17.9688,-16.9271 11.3281,-6.5104 25.1302,-6.5104 24.0885,0 40.8854,18.8802 16.7969,18.8802 16.7969,52.6041 0,34.6354 -16.9271,53.9063 -16.9271,19.1406 -41.0156,19.1406 -11.4583,0 -20.8333,-4.5573 -9.2448,-4.5573 -19.5313,-15.625 v 69.6615 h -36.5885 z m 36.1979,66.7968 q 0,23.3073 9.2448,34.5052 9.2448,11.0677 22.526,11.0677 12.7604,0 21.224,-10.1562 8.4635,-10.2865 8.4635,-33.5938 0,-21.7447 -8.7239,-32.2916 -8.724,-10.5469 -21.6146,-10.5469 -13.4115,0 -22.2657,10.4167 -8.8541,10.2864 -8.8541,30.5989 z"
         style="font-style:normal;font-variant:normal;font-weight:bold;font-stretch:normal;font-size:266.66665649px;font-family:Arial;-inkscape-font-specification:'Arial Bold';text-align:center;letter-spacing:-9.25928211px;text-anchor:middle;fill:#0e232e"
         id="path2952" />
      <path
         d="m 3832.0054,2768.25 v -190.8854 h 36.5885 V 2768.25 Z"
         style="font-style:normal;font-variant:normal;font-weight:bold;font-stretch:normal;font-size:266.66665649px;font-family:Arial;-inkscape-font-specification:'Arial Bold';text-align:center;letter-spacing:-9.25928211px;text-anchor:middle;fill:#0e232e"
         id="path2954" />
      <path
         d="m 4151.8838,2768.25 h -36.5886 v -70.5729 q 0,-22.3958 -2.3437,-28.9063 -2.3438,-6.6406 -7.6823,-10.2864 -5.2084,-3.6459 -12.6302,-3.6459 -9.5052,0 -17.0573,5.2084 -7.5521,5.2083 -10.4167,13.8021 -2.7344,8.5937 -2.7344,31.7708 v 62.6302 h -36.5885 v -138.2812 h 33.9844 v 20.3125 q 18.0989,-23.4375 45.5729,-23.4375 12.1094,0 22.1354,4.427 10.026,4.2969 15.1042,11.0677 5.2083,6.7709 7.1614,15.3646 2.0834,8.5938 2.0834,24.6094 z"
         style="font-style:normal;font-variant:normal;font-weight:bold;font-stretch:normal;font-size:266.66665649px;font-family:Arial;-inkscape-font-specification:'Arial Bold';text-align:center;letter-spacing:-9.25928211px;text-anchor:middle;fill:#0e232e"
         id="path2956" />
    </g>
    <path
       style="opacity:1;fill:#000000;fill-opacity:1;stroke:none;stroke-width:0.36404184;stroke-linecap:butt;stroke-linejoin:miter;stroke-miterlimit:4;stroke-dasharray:none;stroke-dashoffset:0;stroke-opacity:1;paint-order:fill markers stroke"
       d="m 48.232998,290.24423 a 2.0446663,1.8718774 0 0 1 -2.044666,1.87188 2.0446663,1.8718774 0 0 1 -2.044667,-1.87188 2.0446663,1.8718774 0 0 1 2.044667,-1.87188 2.0446663,1.8718774 0 0 1 2.044666,1.87188 z"
       id="path1146-3-9-7-7-0" />
    <g
       aria-label="Tu"
       transform="matrix(0.01018167,0,0,0.01018167,15.224118,263.01937)"
       style="font-style:normal;font-weight:normal;font-size:17.33333397px;line-height:1.25;font-family:sans-serif;text-align:start;letter-spacing:0px;word-spacing:0px;text-anchor:start;fill:#ffffff;fill-opacity:1;stroke:none;stroke-width:8.25;stroke-miterlimit:4;stroke-dasharray:none"
       id="flowRoot4864-5-4-0-3-5-5">
      <path
         d="m 2942.5482,2590.9546 2.2135,-1.8229 2.6042,0.2604 q 2.2135,0 3.776,-1.1719 1.5625,-1.1719 2.474,-1.3021 1.0416,-0.1302 2.3437,-1.3021 1.4323,-1.1718 4.0365,-1.5625 2.6042,-0.5208 3.776,-1.6927 1.1719,-1.1719 2.6042,-1.4323 1.5625,-0.3906 3.5156,-1.1718 l 11.849,-3.6459 q 0.2604,0 1.4323,0.5209 h 0.5208 q 1.5625,0 2.9948,-1.1719 1.5625,-1.3021 3.6458,-1.3021 1.3021,0 5.0782,-1.5625 l 0.7812,0.7812 q 2.0833,-2.3437 3.5156,-2.3437 h 0.7813 q 0.2604,0 2.3437,0.5208 3.2552,-1.0416 5.3386,-1.0416 l 2.9948,-0.2605 q 0.2604,0 0.7812,0.2605 1.0417,-1.1719 2.8646,-1.4323 h 1.4323 l 5.3385,-1.3021 1.5625,0.5208 q 1.5625,-1.3021 4.8177,-1.3021 h 1.3021 l 1.3021,0.2605 q 0.2604,0 2.3438,-0.7813 2.2135,-0.7812 10.5468,-0.7812 l 3.3854,0.5208 q 3.2553,-1.3021 3.5157,-1.3021 l 3.6458,0.7813 1.4323,-0.5209 h 0.5208 q 0.2604,0 1.3021,0.5209 h 0.2604 l 9.375,-1.3021 q 0.2604,0 1.0417,0.2604 1.0417,-0.9115 1.5625,-0.9115 l 2.474,0.6511 q 1.0416,0 3.6458,-1.4323 l 0.7812,0.7812 8.8542,-1.0416 3.2552,0.2604 2.8646,-0.5209 q 4.2969,0 6.3802,2.3438 2.2135,2.2135 2.2135,4.5573 l 0.5209,4.0364 -0.7813,2.2136 -0.2604,2.6042 q -0.651,1.5625 -1.9531,2.0833 0,0.2604 -1.1719,0.651 -1.1719,0.2604 -2.3437,1.0417 -1.1719,0.7812 -7.6823,0.7812 -3.2552,0 -4.1667,-1.9531 -0.9115,-2.0833 -1.9531,-2.3437 l -5.599,-2.3438 q -0.2604,-0.2604 -1.5625,-0.2604 h -1.0416 l -5.3386,0.5208 q -0.2604,0 -1.4323,-0.2604 -1.6927,0.7813 -1.8229,0.7813 l -9.6354,-0.5209 -3.9063,0.2605 -2.7343,-0.5209 q -0.5209,0 -1.823,0.3906 -1.302,0.3907 -5.4687,0.6511 -4.1667,0.2604 -4.1667,2.6042 0,1.4322 1.0417,3.125 1.1719,1.6927 1.1719,2.7343 -1.9532,2.7344 -1.9532,3.5157 -0.5208,0.3906 -1.8229,1.6927 -1.3021,1.302 -4.8177,4.1666 -3.5156,2.7344 -4.8177,5.0782 -1.3021,2.3437 -3.125,2.3437 -2.3437,2.2135 -3.2552,4.0365 l -1.0417,1.0416 q -0.2604,0.2604 -0.2604,1.1719 0,0.7813 -0.7812,1.5625 l -1.1719,3.125 q -0.9115,0.3906 -5.3385,6.7708 l -1.5625,0.7813 -1.5625,1.8229 h -1.823 q -1.1718,0 -1.1718,1.5625 l 0.5208,3.776 q -1.9531,1.6928 -3.125,4.5573 l -1.5625,2.6042 q -2.7344,2.7344 -2.7344,2.9948 0,0.651 -2.6041,5.599 l -0.2605,1.302 q 0,2.2136 -9.1145,12.7605 -1.3021,2.4739 -1.5625,7.552 -3.9063,7.6823 -5.3386,7.4219 -0.2604,4.9479 -1.6927,8.0729 -1.3021,3.125 -3.5156,9.2448 -2.0834,5.9896 -4.4271,8.5938 l -0.5208,1.0416 q -0.5209,1.0417 -1.3021,2.0834 -0.2604,3.5156 -2.474,11.1979 l -0.7812,5.5989 -2.6042,7.2917 q -0.3906,0.7813 -0.3906,1.5625 0,0.5208 0.7812,2.0833 0.9115,1.4323 0.9115,2.7344 0,1.8229 -0.6511,2.9948 -0.651,1.0417 -0.651,2.8646 0,4.0364 -4.2969,5.3385 h -1.0416 l -2.7344,0.2604 q -5.4688,0 -9.8958,-5.2083 -4.4271,-5.2083 -4.4271,-14.3229 0,-0.5208 0.7812,-3.9062 0.7813,-3.5157 0.9115,-4.5573 0.1302,-1.0417 0.651,-2.0834 0.5209,-1.1718 0.5209,-3.2552 0,-6.3802 3.125,-11.0677 3.2552,-4.6875 4.2968,-6.7708 0.2604,-0.9115 0.9115,-1.1719 -0.3906,-1.0417 -0.3906,-2.6042 0,-3.776 3.2552,-6.1198 0.2604,-1.0416 0.9114,-2.3437 0.6511,-1.4323 2.7344,-6.6406 2.0833,-5.3386 5.4688,-6.25 -0.1303,-0.2604 1.5625,-2.0834 l -0.5209,-4.5573 q 0,-1.0416 2.3438,-3.5156 l 2.2135,-3.6458 q 0.5208,-2.2136 3.3854,-4.0365 0.7813,-1.3021 1.6927,-1.5625 0.1302,-0.5208 1.0417,-3.2552 1.0417,-2.7344 4.1667,-6.7708 3.2552,-4.1667 6.1198,-8.5938 2.9948,-4.427 5.3385,-4.5573 2.474,-0.1302 2.7344,-2.7343 l 0.7812,-4.8177 q 3.7761,-3.2552 4.5573,-4.5573 l 1.8229,-2.0834 q 0.5209,-1.8229 1.3021,-2.3437 0.9115,-0.6511 2.2136,-2.474 1.302,-1.8229 3.2552,-3.2552 1.6927,-5.3385 7.6823,-9.2448 l 2.0833,-2.2135 q 2.2135,-3.125 3.6458,-4.1667 1.4323,-1.1719 2.0834,-2.9948 0.7812,-1.8229 2.8645,-2.7343 2.0834,-0.9115 2.0834,-2.0834 0,-0.5208 -1.0417,-0.5208 -1.0417,0 -3.5156,0.7812 h -1.0417 l -2.3437,0.5209 h -0.7813 l -2.2135,-0.5209 q -2.3438,0.7813 -3.6459,0.7813 -0.2604,0.2604 -1.6927,1.1719 h -2.8645 l -1.5625,1.5625 -1.1719,0.2604 -3.3854,-0.5209 q -1.5625,0 -3.7761,1.5625 0,0.2605 -4.2969,0.9115 -4.1666,0.651 -7.9427,2.474 -3.776,1.6927 -4.5573,1.6927 l -2.3437,-0.5209 h -0.2604 q -1.6927,0 -3.125,1.6927 -1.4323,1.6928 -4.1667,2.0834 h -1.5625 q -1.9531,0 -5.3385,1.5625 -3.2552,1.5625 -3.5157,1.5625 l -2.3437,-0.2604 q -1.5625,1.0416 -2.7344,1.4323 -1.0416,0.3906 -2.0833,1.302 -1.0417,0.7813 -2.0833,1.1719 -1.0417,0.3906 -2.474,1.4323 -1.3021,1.0417 -2.0833,1.0417 h -0.5209 l -1.5625,-0.2604 q -0.9114,0 -2.3437,1.6927 -1.4323,1.5625 -2.7344,1.9531 -1.1719,0.3906 -2.3437,1.3021 -1.0417,0.7812 -2.2136,0.9114 -0.651,0.6511 -1.8229,2.8646 -1.1719,2.2136 -2.9948,3.9063 -1.8229,1.5625 -2.4739,2.4739 -0.5209,0.9115 -1.0417,0.9115 -6.3802,0 -6.3802,-7.9427 l 2.6041,-5.599 q 2.7344,-6.6406 8.3334,-8.0729 1.4323,0 7.4219,-2.8646 z"
         style="font-style:normal;font-variant:normal;font-weight:bold;font-stretch:normal;font-size:266.66665649px;font-family:'Rage Italic';-inkscape-font-specification:'Rage Italic, Bold';text-align:start;text-anchor:start;fill:#ffffff"
         id="path2946" />
      <path
         d="m 3026.6628,2687.0483 1.8229,0.7813 q 0.2604,-2.2136 2.4739,-3.7761 h 1.0417 q 1.3021,0 3.3854,-3.5156 l 2.2136,-1.3021 q 0.5208,0.2604 1.5625,0.2604 0.7812,0 1.4323,-1.0416 0.7812,-1.0417 3.6458,-4.0365 h 0.5208 q 0.7813,0 1.8229,-1.1719 1.1719,-1.1718 2.9948,-1.1718 l 4.4271,-1.1719 q 2.0833,-0.5208 2.3438,-0.5208 1.1718,-0.3907 5.7291,4.8177 4.5573,5.0781 4.5573,9.8958 0,2.7344 -2.8646,3.2552 l -0.651,0.5208 v 2.6042 l -2.2135,4.8177 q -0.9115,1.9531 -2.2136,2.474 -1.1719,2.0833 -1.6927,2.8646 l -1.8229,0.2604 -0.7813,0.7812 v 3.2552 q -1.1718,1.5625 -3.3854,6.9011 -2.2135,5.2083 -2.2135,6.6406 0,2.474 1.0416,2.474 0.7813,0 1.5625,-0.6511 0.7813,-0.651 2.0834,-1.4323 1.4323,-0.9114 2.0833,-1.8229 0.6511,-0.9115 2.7344,-1.5625 2.0833,-0.7812 3.9062,-2.7344 1.823,-1.9531 2.6042,-2.6041 0.7813,-0.6511 1.6927,-1.6927 0.9115,-1.1719 1.1719,-1.1719 0.7812,0 2.4739,-0.5209 0.2605,-1.4322 0.5209,-2.0833 l 3.125,-1.5625 7.5521,-6.7708 1.0416,-1.3021 q 2.0834,-0.5208 2.6042,-0.7813 1.0417,-3.5156 3.5156,-5.0781 0,-0.5208 1.3021,-0.7812 1.0417,-2.0834 2.6042,-3.2552 1.6927,-1.3021 2.7343,-3.125 l 2.9948,-2.474 q 1.3021,-0.5208 1.8229,-1.5625 6.7709,-5.9896 8.3334,-6.7708 1.6927,-0.9115 5.3385,-0.9115 3.6459,0 5.8594,2.8646 2.3437,2.7344 4.9479,4.1667 2.7344,1.4323 2.7344,5.4687 0,3.7761 -5.8594,14.4531 -3.776,11.198 -3.9062,13.8021 -0.1302,2.474 -1.1719,2.8646 -1.0417,0.3906 -1.0417,0.9115 v 0.5208 q 0,3.125 1.0417,3.125 0.7812,0 2.0833,-1.3021 1.4323,-1.3021 5.599,-2.8646 l 1.1719,0.2604 q 3.776,-5.7291 5.0781,-6.1197 1.3021,-0.5209 2.6041,-2.3438 1.3021,-1.9531 3.125,-2.0833 1.9532,-0.1302 2.474,-0.6511 0.1302,-3.125 5.0781,-7.0312 5.0782,-3.9063 5.8594,-3.9063 1.3021,0 2.0833,1.9532 0.7813,1.9531 1.5625,2.7343 0.9115,0.6511 0.9115,1.1719 v 2.3438 q 0,1.6927 -1.6927,2.2135 -1.3021,2.8646 -2.3438,3.3854 l -2.3437,-0.2604 q -0.6511,0.7812 -1.1719,1.4323 -0.3906,0.651 -0.5208,0.5208 -1.0417,0.2604 -3.7761,3.5156 -2.6041,3.125 -4.6875,5.2084 l -0.5208,0.7812 q -1.0417,0.7813 -1.9531,1.0417 l -2.3438,1.9531 q -1.3021,-0.7812 -1.5625,-0.7812 -0.2604,0 -1.1718,1.0416 -0.7813,1.0417 -3.3855,2.7344 -2.4739,1.5625 -3.776,3.6458 l -2.0833,2.0834 -2.7344,0.3906 q -0.3906,0 -1.3021,1.1719 l -2.3437,2.9948 q -1.6928,2.2135 -5.3386,2.2135 -0.7812,0 -2.0833,-1.3021 -1.1719,-1.4323 -2.3438,-2.3437 -1.0416,-1.0417 -4.9479,-5.8594 -3.776,-4.9479 -3.776,-5.2083 l 0.7812,-4.5573 -0.2604,-3.125 q 0,-0.9115 1.1719,-2.7344 1.3021,-1.9531 1.3021,-2.0833 l -0.2605,-5.0782 q 0.2605,-0.2604 0.5209,-0.7812 l 1.8229,-2.9948 q -0.2604,-1.3021 -0.2604,-2.8646 l 0.5208,-4.2969 q -2.3437,1.0417 -4.1667,4.2969 -1.6927,3.125 -4.5572,3.125 -2.474,4.4271 -3.7761,4.2969 -0.5208,0.5208 -0.7812,1.0417 l -1.823,1.0416 -2.2135,-0.2604 -0.7812,3.2552 q -2.8646,1.5625 -3.7761,2.8646 -0.7812,1.1719 -2.6042,2.474 l -2.2135,2.0833 h -2.0833 q -0.5209,3.5156 -4.0365,5.8594 l -1.0416,1.302 -2.3438,-0.2604 q -1.3021,4.1667 -3.2552,5.0782 -2.2135,0 -6.1198,4.0364 -3.776,4.0365 -5.3385,4.0365 -11.3282,0 -18.3594,-14.1927 -0.2604,-0.5209 -1.3021,-1.9532 -0.9115,-1.4322 -0.9115,-4.427 0,-5.0782 1.3021,-6.9011 1.4323,-1.8229 3.5157,-6.7708 2.2135,-5.0781 3.2552,-4.4271 0.2604,-0.5208 0.2604,-1.5625 2.0833,-2.474 2.0833,-3.776 0,-0.5209 -0.5208,-0.5209 -0.2604,0 -1.5625,0.7813 l -1.8229,0.7812 q -1.1719,0.2604 -1.6927,1.0417 -0.5209,0.7812 -1.823,1.5625 -1.302,0.651 -2.0833,1.1719 h -0.3906 q -0.7813,-0.7813 -1.0417,-0.7813 -0.7812,2.0834 -1.3021,2.6042 l -1.5625,0.2604 q -2.8646,2.9948 -3.6458,2.9948 -0.5208,0 -2.3438,-0.9115 -1.8229,-0.9114 -1.8229,-1.8229 l 0.9115,-5.0781 v -2.3438 q 0,-0.2604 1.0417,-1.0416 0.2604,0 2.0833,-2.7344 1.8229,-2.8646 4.2969,-2.8646 z"
         style="font-style:normal;font-variant:normal;font-weight:bold;font-stretch:normal;font-size:266.66665649px;font-family:'Rage Italic';-inkscape-font-specification:'Rage Italic, Bold';text-align:start;text-anchor:start;fill:#ffffff"
         id="path2948" />
    </g>
    <g
       transform="matrix(0.10144698,0,0,0.10144698,-39.281322,286.13421)"
       id="g14192-4-9-7-3"
       style="stroke-width:8.25;stroke-miterlimit:4;stroke-dasharray:none"
       inkscape:export-xdpi="300"
       inkscape:export-ydpi="300">
      <path
         style="opacity:1;fill:none;fill-opacity:1;stroke:#000000;stroke-width:10.01882076;stroke-linecap:butt;stroke-linejoin:miter;stroke-miterlimit:4;stroke-dasharray:none;stroke-dashoffset:0;stroke-opacity:1;paint-order:fill markers stroke"
         d="M 858.80576,38.903076 A 17.272861,17.272861 0 0 1 841.5329,56.175938 17.272861,17.272861 0 0 1 824.26004,38.903076 17.272861,17.272861 0 0 1 841.5329,21.630215 17.272861,17.272861 0 0 1 858.80576,38.903076 Z"
         id="path14186-5-7-2-4" />
      <path
         style="fill:none;stroke:#000000;stroke-width:11.39235687;stroke-linecap:square;stroke-linejoin:round;stroke-miterlimit:4;stroke-dasharray:none;stroke-opacity:1"
         d="M 859.78118,21.390551 V 56.505686"
         id="path14188-3-5-1-6"
         inkscape:connector-curvature="0" />
    </g>
    <g
       transform="matrix(0.10144698,0,0,0.10144698,-25.862371,286.15391)"
       id="g14192-6-2-4-6-7"
       style="fill:#0e232e;fill-opacity:1;stroke:#0e232e;stroke-width:8.24998283;stroke-miterlimit:4;stroke-dasharray:none;stroke-opacity:1"
       inkscape:export-xdpi="300"
       inkscape:export-ydpi="300">
      <path
         style="opacity:1;fill:#0e232e;fill-opacity:1;stroke:#0e232e;stroke-width:8.24998283;stroke-linecap:butt;stroke-linejoin:miter;stroke-miterlimit:4;stroke-dasharray:none;stroke-dashoffset:0;stroke-opacity:1;paint-order:fill markers stroke"
         d="M 846.30576,38.903076 A 17.272861,17.272861 0 0 1 829.0329,56.175938 17.272861,17.272861 0 0 1 811.76004,38.903076 17.272861,17.272861 0 0 1 829.0329,21.630215 17.272861,17.272861 0 0 1 846.30576,38.903076 Z"
         id="path14186-1-0-8-2-1" />
      <path
         style="fill:#0e232e;fill-opacity:1;stroke:#0e232e;stroke-width:8.24998283;stroke-linecap:square;stroke-linejoin:round;stroke-miterlimit:4;stroke-dasharray:none;stroke-opacity:1"
         d="M 847.28118,21.390551 V 56.505686"
         id="path14188-6-2-4-9-2"
         inkscape:connector-curvature="0" />
    </g>
  </g>
</svg>
